<svg xmlns="http://www.w3.org/2000/svg" viewBox="0 0 900 550" width="900" height="550">
  <defs>
    <style>
      .bg { fill: #0d1117; }
      .surface { fill: #161b22; }
      .border { fill: #30363d; }
      .title-bar { fill: #1c2128; }
      .tab-active { fill: #0d1117; }
      .tab-inactive { fill: #161b22; }
      .status-bar { fill: #161b22; }
      .text-primary { fill: #e6edf3; font-family: -apple-system, 'Segoe UI', sans-serif; }
      .text-secondary { fill: #8b949e; font-family: -apple-system, 'Segoe UI', sans-serif; }
      .text-mono { fill: #e6edf3; font-family: 'SF Mono', 'Fira Code', 'Consolas', monospace; }
      .text-mono-dim { fill: #8b949e; font-family: 'SF Mono', 'Fira Code', 'Consolas', monospace; }
      .accent { fill: #58a6ff; }
      .success { fill: #3fb950; }
      .warning { fill: #d29922; }
      .chat-user-bg { fill: #1c2128; }
      .chat-agent-bg { fill: #161b22; }
      .keyword { fill: #ff7b72; font-family: 'SF Mono', 'Fira Code', 'Consolas', monospace; }
      .string { fill: #a5d6ff; font-family: 'SF Mono', 'Fira Code', 'Consolas', monospace; }
      .comment { fill: #8b949e; font-family: 'SF Mono', 'Fira Code', 'Consolas', monospace; }
      .type { fill: #79c0ff; font-family: 'SF Mono', 'Fira Code', 'Consolas', monospace; }
      .folder-icon { fill: #d29922; }
      .file-icon { fill: #8b949e; }
    </style>
  </defs>

  <!-- Background -->
  <rect width="900" height="550" class="bg" rx="8" ry="8"/>

  <!-- Title Bar -->
  <rect width="900" height="30" class="title-bar" rx="8" ry="8"/>
  <rect y="22" width="900" height="10" class="title-bar"/>
  <!-- Window controls -->
  <circle cx="18" cy="15" r="5.5" fill="#ff5f57"/>
  <circle cx="36" cy="15" r="5.5" fill="#febc2e"/>
  <circle cx="54" cy="15" r="5.5" fill="#28c840"/>
  <text x="450" y="19" text-anchor="middle" font-size="12" class="text-secondary">zoto-agents — Cursor</text>

  <!-- Tab Bar -->
  <rect y="30" width="900" height="30" class="surface"/>
  <rect x="200" y="30" width="900" height="1" class="border"/>
  <!-- Active tab -->
  <rect x="200" y="30" width="180" height="30" class="tab-active"/>
  <rect x="200" y="30" width="180" height="1" fill="#58a6ff"/>
  <text x="215" y="50" font-size="11" class="text-primary">spec-auth-20260406.md</text>
  <!-- Inactive tab -->
  <rect x="380" y="30" width="150" height="30" class="tab-inactive"/>
  <text x="395" y="50" font-size="11" class="text-secondary">subtask-01-auth&amp;</text>
  <rect x="200" y="59" width="700" height="1" class="border"/>

  <!-- Sidebar -->
  <rect y="30" width="200" height="500" class="surface"/>
  <rect x="199" y="30" width="1" height="500" class="border"/>
  <!-- Sidebar header -->
  <text x="14" y="50" font-size="10" font-weight="600" letter-spacing="0.5" class="text-secondary">EXPLORER</text>
  <!-- File tree -->
  <text x="12" y="76" font-size="11" class="text-secondary"> </text>
  <text x="24" y="76" font-size="11" class="folder-icon"> </text>
  <text x="36" y="76" font-size="11" font-weight="600" class="text-primary">zoto-agents</text>

  <text x="22" y="94" font-size="11" class="text-secondary"> </text>
  <text x="34" y="94" font-size="11" class="folder-icon"> </text>
  <text x="46" y="94" font-size="11" class="text-secondary">.cursor</text>

  <text x="22" y="112" font-size="11" class="text-secondary"> </text>
  <text x="34" y="112" font-size="11" class="folder-icon"> </text>
  <text x="46" y="112" font-size="11" class="text-secondary">plugins</text>

  <text x="22" y="130" font-size="11" class="text-secondary"> </text>
  <text x="34" y="130" font-size="11" class="folder-icon"> </text>
  <text x="46" y="130" font-size="11" class="text-primary">specs</text>

  <!-- Specs subdirectory - newly created -->
  <rect x="0" y="134" width="200" height="18" fill="#58a6ff" opacity="0.08"/>
  <text x="38" y="148" font-size="11" class="text-secondary"> </text>
  <text x="50" y="148" font-size="11" class="folder-icon"> </text>
  <text x="62" y="148" font-size="11" class="accent">20260406-auth</text>

  <text x="54" y="166" font-size="11" class="file-icon"> </text>
  <text x="66" y="166" font-size="11" class="text-primary">spec-auth-2026&amp;</text>

  <text x="54" y="184" font-size="11" class="file-icon"> </text>
  <text x="66" y="184" font-size="11" class="text-secondary">subtask-01-auth&amp;</text>

  <text x="54" y="202" font-size="11" class="file-icon"> </text>
  <text x="66" y="202" font-size="11" class="text-secondary">subtask-02-auth&amp;</text>

  <text x="54" y="220" font-size="11" class="file-icon"> </text>
  <text x="66" y="220" font-size="11" class="text-secondary">subtask-03-auth&amp;</text>

  <text x="22" y="238" font-size="11" class="text-secondary"> </text>
  <text x="34" y="238" font-size="11" class="folder-icon"> </text>
  <text x="46" y="238" font-size="11" class="text-secondary">scripts</text>

  <text x="22" y="256" font-size="11" class="text-secondary"> </text>
  <text x="34" y="256" font-size="11" class="folder-icon"> </text>
  <text x="46" y="256" font-size="11" class="text-secondary">site</text>

  <!-- Editor Pane -->
  <rect x="200" y="60" width="370" height="470" class="bg"/>
  <rect x="569" y="60" width="1" height="470" class="border"/>

  <!-- Editor content - spec file being created -->
  <text x="216" y="82" font-size="11" class="comment"># Spec: User Authentication</text>
  <text x="216" y="100" font-size="11" class="text-mono-dim"></text>
  <text x="216" y="118" font-size="11" class="keyword">**Status**</text><text x="266" y="118" font-size="11" class="text-mono">: Draft</text>
  <text x="216" y="136" font-size="11" class="keyword">**Feature**</text><text x="272" y="136" font-size="11" class="text-mono">: user-authentication</text>
  <text x="216" y="154" font-size="11" class="keyword">**Created**</text><text x="272" y="154" font-size="11" class="text-mono">: 2026-04-06</text>
  <text x="216" y="172" font-size="11" class="text-mono-dim"></text>
  <text x="216" y="190" font-size="11" class="comment">## Overview</text>
  <text x="216" y="208" font-size="11" class="text-mono-dim"></text>
  <text x="216" y="226" font-size="11" class="text-mono">Add JWT-based authentication with</text>
  <text x="216" y="244" font-size="11" class="text-mono">session management, login/signup</text>
  <text x="216" y="262" font-size="11" class="text-mono">flows, and role-based access control.</text>
  <text x="216" y="280" font-size="11" class="text-mono-dim"></text>
  <text x="216" y="298" font-size="11" class="comment">## Subtask Manifest</text>
  <text x="216" y="316" font-size="11" class="text-mono-dim"></text>
  <text x="216" y="334" font-size="11" class="text-mono">| ID | Subtask          | Phase |</text>
  <text x="216" y="352" font-size="11" class="text-mono">|----|------------------|-------|</text>
  <text x="216" y="370" font-size="11" class="text-mono">| 01 | DB schema        |   1   |</text>
  <text x="216" y="388" font-size="11" class="text-mono">| 02 | Auth middleware   |   1   |</text>
  <text x="216" y="406" font-size="11" class="text-mono">| 03 | Login/signup API  |   2   |</text>
  <text x="216" y="424" font-size="11" class="text-mono">| 04 | RBAC             |   3   |</text>

  <!-- Line numbers -->
  <text x="204" y="82" font-size="10" text-anchor="end" class="text-mono-dim">1</text>
  <text x="204" y="100" font-size="10" text-anchor="end" class="text-mono-dim">2</text>
  <text x="204" y="118" font-size="10" text-anchor="end" class="text-mono-dim">3</text>
  <text x="204" y="136" font-size="10" text-anchor="end" class="text-mono-dim">4</text>
  <text x="204" y="154" font-size="10" text-anchor="end" class="text-mono-dim">5</text>
  <text x="204" y="172" font-size="10" text-anchor="end" class="text-mono-dim">6</text>
  <text x="204" y="190" font-size="10" text-anchor="end" class="text-mono-dim">7</text>
  <text x="204" y="208" font-size="10" text-anchor="end" class="text-mono-dim">8</text>
  <text x="204" y="226" font-size="10" text-anchor="end" class="text-mono-dim">9</text>
  <text x="204" y="244" font-size="10" text-anchor="end" class="text-mono-dim">10</text>
  <text x="204" y="262" font-size="10" text-anchor="end" class="text-mono-dim">11</text>
  <text x="204" y="280" font-size="10" text-anchor="end" class="text-mono-dim">12</text>
  <text x="204" y="298" font-size="10" text-anchor="end" class="text-mono-dim">13</text>
  <text x="204" y="316" font-size="10" text-anchor="end" class="text-mono-dim">14</text>
  <text x="204" y="334" font-size="10" text-anchor="end" class="text-mono-dim">15</text>
  <text x="204" y="352" font-size="10" text-anchor="end" class="text-mono-dim">16</text>
  <text x="204" y="370" font-size="10" text-anchor="end" class="text-mono-dim">17</text>
  <text x="204" y="388" font-size="10" text-anchor="end" class="text-mono-dim">18</text>
  <text x="204" y="406" font-size="10" text-anchor="end" class="text-mono-dim">19</text>
  <text x="204" y="424" font-size="10" text-anchor="end" class="text-mono-dim">20</text>

  <!-- Chat/AI Pane -->
  <rect x="570" y="60" width="330" height="470" class="surface"/>
  <!-- Chat header -->
  <rect x="570" y="60" width="330" height="28" fill="#1c2128"/>
  <rect x="570" y="87" width="330" height="1" class="border"/>
  <text x="585" y="79" font-size="11" font-weight="600" class="text-primary">Agent</text>
  <text x="623" y="79" font-size="10" class="text-secondary">  zoto-spec-generator</text>

  <!-- User message -->
  <rect x="590" y="100" width="290" height="36" rx="8" class="chat-user-bg" stroke="#30363d" stroke-width="1"/>
  <text x="602" y="114" font-size="10" class="accent">You</text>
  <text x="602" y="128" font-size="11" class="text-mono">/zoto-spec-create "add auth"</text>

  <!-- Agent response 1 -->
  <rect x="590" y="148" width="290" height="148" rx="8" class="chat-agent-bg" stroke="#30363d" stroke-width="1"/>
  <text x="602" y="164" font-size="10" class="accent">Spec Generator</text>
  <text x="602" y="182" font-size="11" class="text-primary">I'll help you create a spec for user</text>
  <text x="602" y="198" font-size="11" class="text-primary">authentication. Let me ask a few</text>
  <text x="602" y="214" font-size="11" class="text-primary">questions to understand the scope:</text>
  <text x="602" y="236" font-size="11" class="text-primary">1. What auth method? (JWT, session,</text>
  <text x="615" y="252" font-size="11" class="text-primary">OAuth, or a combination?)</text>
  <text x="602" y="274" font-size="11" class="text-primary">2. Do you need role-based access</text>
  <text x="615" y="290" font-size="11" class="text-primary">control (RBAC)?</text>

  <!-- User response -->
  <rect x="590" y="308" width="290" height="36" rx="8" class="chat-user-bg" stroke="#30363d" stroke-width="1"/>
  <text x="602" y="322" font-size="10" class="accent">You</text>
  <text x="602" y="336" font-size="11" class="text-mono">JWT with RBAC, yes</text>

  <!-- Agent response 2 -->
  <rect x="590" y="356" width="290" height="108" rx="8" class="chat-agent-bg" stroke="#30363d" stroke-width="1"/>
  <text x="602" y="372" font-size="10" class="accent">Spec Generator</text>
  <text x="602" y="390" font-size="11" class="text-primary">Great. I've explored the codebase and</text>
  <text x="602" y="406" font-size="11" class="text-primary">created the spec with 4 subtasks</text>
  <text x="602" y="422" font-size="11" class="text-primary">across 3 phases.</text>
  <text x="602" y="444" font-size="11" class="success">✓ Spec created at specs/20260406-auth/</text>

  <!-- Typing indicator area -->
  <rect x="590" y="476" width="290" height="36" rx="8" fill="#1c2128" stroke="#30363d" stroke-width="1"/>
  <text x="602" y="498" font-size="11" class="text-secondary">Type a message&amp;</text>

  <!-- Status Bar -->
  <rect y="530" width="900" height="20" class="status-bar"/>
  <rect y="530" width="900" height="1" class="border"/>
  <text x="14" y="544" font-size="10" class="accent">  main</text>
  <text x="80" y="544" font-size="10" class="text-secondary">Markdown</text>
  <text x="800" y="544" font-size="10" class="text-secondary">UTF-8  LF</text>
</svg>
