<svg xmlns="http://www.w3.org/2000/svg" viewBox="0 0 900 550" width="900" height="550">
  <defs>
    <style>
      .bg { fill: #0d1117; }
      .surface { fill: #161b22; }
      .border { fill: #30363d; }
      .title-bar { fill: #1c2128; }
      .tab-active { fill: #0d1117; }
      .tab-inactive { fill: #161b22; }
      .text-primary { fill: #e6edf3; font-family: -apple-system, 'Segoe UI', sans-serif; }
      .text-secondary { fill: #8b949e; font-family: -apple-system, 'Segoe UI', sans-serif; }
      .text-mono { fill: #e6edf3; font-family: 'SF Mono', 'Fira Code', 'Consolas', monospace; }
      .text-mono-dim { fill: #8b949e; font-family: 'SF Mono', 'Fira Code', 'Consolas', monospace; }
      .accent { fill: #58a6ff; }
      .success { fill: #3fb950; }
      .warning { fill: #d29922; }
      .keyword { fill: #ff7b72; font-family: 'SF Mono', 'Fira Code', 'Consolas', monospace; }
      .comment { fill: #8b949e; font-family: 'SF Mono', 'Fira Code', 'Consolas', monospace; }
      .folder-icon { fill: #d29922; }
      .file-icon { fill: #8b949e; }
    </style>
  </defs>

  <!-- Background -->
  <rect width="900" height="550" class="bg" rx="8" ry="8"/>

  <!-- Title Bar -->
  <rect width="900" height="30" class="title-bar" rx="8" ry="8"/>
  <rect y="22" width="900" height="10" class="title-bar"/>
  <circle cx="18" cy="15" r="5.5" fill="#ff5f57"/>
  <circle cx="36" cy="15" r="5.5" fill="#febc2e"/>
  <circle cx="54" cy="15" r="5.5" fill="#28c840"/>
  <text x="450" y="19" text-anchor="middle" font-size="12" class="text-secondary">zoto-agents — Cursor</text>

  <!-- Tab Bar -->
  <rect y="30" width="900" height="30" class="surface"/>
  <rect x="200" y="30" width="700" height="1" class="border"/>
  <rect x="200" y="30" width="190" height="30" class="tab-active"/>
  <rect x="200" y="30" width="190" height="1" fill="#58a6ff"/>
  <text x="215" y="50" font-size="11" class="text-primary">subtask-02-auth-middleware&amp;</text>
  <rect x="390" y="30" width="150" height="30" class="tab-inactive"/>
  <text x="405" y="50" font-size="11" class="text-secondary">spec-auth-2026&amp;</text>
  <rect x="540" y="30" width="160" height="30" class="tab-inactive"/>
  <text x="555" y="50" font-size="11" class="text-secondary">subtask-01-auth&amp;</text>
  <rect x="200" y="59" width="700" height="1" class="border"/>

  <!-- Sidebar -->
  <rect y="30" width="200" height="500" class="surface"/>
  <rect x="199" y="30" width="1" height="500" class="border"/>
  <text x="14" y="50" font-size="10" font-weight="600" letter-spacing="0.5" class="text-secondary">EXPLORER</text>

  <text x="12" y="76" font-size="11" class="text-secondary"> </text>
  <text x="24" y="76" font-size="11" class="folder-icon"> </text>
  <text x="36" y="76" font-size="11" font-weight="600" class="text-primary">zoto-agents</text>

  <text x="22" y="94" font-size="11" class="text-secondary"> </text>
  <text x="34" y="94" font-size="11" class="folder-icon"> </text>
  <text x="46" y="94" font-size="11" class="text-secondary">plugins</text>

  <text x="22" y="112" font-size="11" class="text-secondary"> </text>
  <text x="34" y="112" font-size="11" class="folder-icon"> </text>
  <text x="46" y="112" font-size="11" class="text-primary">specs</text>

  <text x="38" y="130" font-size="11" class="text-secondary"> </text>
  <text x="50" y="130" font-size="11" class="folder-icon"> </text>
  <text x="62" y="130" font-size="11" class="text-primary">20260406-auth</text>

  <text x="54" y="148" font-size="11" class="file-icon"> </text>
  <text x="66" y="148" font-size="11" class="text-secondary">spec-auth-2026&amp;</text>

  <!-- Subtask 01 with done indicator -->
  <text x="54" y="166" font-size="11" class="success">✓</text>
  <text x="66" y="166" font-size="11" class="text-secondary">subtask-01-auth&amp;</text>

  <!-- Subtask 02 highlighted as active -->
  <rect x="0" y="170" width="200" height="18" fill="#58a6ff" opacity="0.08"/>
  <text x="54" y="184" font-size="11" class="warning"> </text>
  <text x="66" y="184" font-size="11" class="accent">subtask-02-auth&amp;</text>

  <text x="54" y="202" font-size="11" class="file-icon"> </text>
  <text x="66" y="202" font-size="11" class="text-secondary">subtask-03-auth&amp;</text>

  <text x="54" y="220" font-size="11" class="file-icon"> </text>
  <text x="66" y="220" font-size="11" class="text-secondary">subtask-04-auth&amp;</text>

  <text x="22" y="250" font-size="11" class="text-secondary"> </text>
  <text x="34" y="250" font-size="11" class="folder-icon"> </text>
  <text x="46" y="250" font-size="11" class="text-primary">src</text>

  <text x="38" y="268" font-size="11" class="text-secondary"> </text>
  <text x="50" y="268" font-size="11" class="folder-icon"> </text>
  <text x="62" y="268" font-size="11" class="text-secondary">middleware</text>

  <text x="38" y="286" font-size="11" class="text-secondary"> </text>
  <text x="50" y="286" font-size="11" class="folder-icon"> </text>
  <text x="62" y="286" font-size="11" class="text-secondary">models</text>

  <!-- Editor Pane - Subtask file being executed -->
  <rect x="200" y="60" width="370" height="470" class="bg"/>
  <rect x="569" y="60" width="1" height="470" class="border"/>

  <text x="216" y="82" font-size="11" class="comment"># Subtask: Auth Middleware</text>
  <text x="216" y="100" font-size="11" class="text-mono-dim"></text>
  <text x="216" y="118" font-size="11" class="comment">## Deliverables Checklist</text>
  <text x="216" y="136" font-size="11" class="success">- [x] JWT verification middleware</text>
  <text x="216" y="154" font-size="11" class="success">- [x] Token refresh endpoint</text>
  <text x="216" y="172" font-size="11" class="warning">- [ ] Rate limiting on auth routes</text>
  <text x="216" y="190" font-size="11" class="text-mono-dim">- [ ] Error handling for expired tokens</text>
  <text x="216" y="208" font-size="11" class="text-mono-dim"></text>
  <text x="216" y="226" font-size="11" class="comment">## Definition of Done</text>
  <text x="216" y="244" font-size="11" class="success">- [x] Code implemented</text>
  <text x="216" y="262" font-size="11" class="text-mono-dim">- [ ] Tests added</text>
  <text x="216" y="280" font-size="11" class="text-mono-dim">- [ ] No linter errors</text>
  <text x="216" y="298" font-size="11" class="text-mono-dim"></text>
  <text x="216" y="316" font-size="11" class="comment">## Execution Notes</text>
  <text x="216" y="334" font-size="11" class="text-mono-dim"></text>
  <text x="216" y="352" font-size="11" class="text-mono">### Work Log</text>
  <text x="216" y="370" font-size="11" class="text-mono">- Created src/middleware/auth.ts</text>
  <text x="216" y="388" font-size="11" class="text-mono">- Implemented JWT verify using</text>
  <text x="216" y="406" font-size="11" class="text-mono">  jose library</text>
  <text x="216" y="424" font-size="11" class="text-mono">- Added /auth/refresh endpoint</text>
  <text x="216" y="442" font-size="11" class="warning">- Working on rate limiter...</text>

  <!-- Blinking cursor indicator -->
  <rect x="434" y="432" width="2" height="14" fill="#e6edf3" opacity="0.8">
    <animate attributeName="opacity" values="0.8;0;0.8" dur="1s" repeatCount="indefinite"/>
  </rect>

  <!-- Line numbers -->
  <text x="204" y="82" font-size="10" text-anchor="end" class="text-mono-dim">1</text>
  <text x="204" y="100" font-size="10" text-anchor="end" class="text-mono-dim">2</text>
  <text x="204" y="118" font-size="10" text-anchor="end" class="text-mono-dim">3</text>
  <text x="204" y="136" font-size="10" text-anchor="end" class="text-mono-dim">4</text>
  <text x="204" y="154" font-size="10" text-anchor="end" class="text-mono-dim">5</text>
  <text x="204" y="172" font-size="10" text-anchor="end" class="text-mono-dim">6</text>
  <text x="204" y="190" font-size="10" text-anchor="end" class="text-mono-dim">7</text>
  <text x="204" y="208" font-size="10" text-anchor="end" class="text-mono-dim">8</text>
  <text x="204" y="226" font-size="10" text-anchor="end" class="text-mono-dim">9</text>
  <text x="204" y="244" font-size="10" text-anchor="end" class="text-mono-dim">10</text>
  <text x="204" y="262" font-size="10" text-anchor="end" class="text-mono-dim">11</text>
  <text x="204" y="280" font-size="10" text-anchor="end" class="text-mono-dim">12</text>
  <text x="204" y="298" font-size="10" text-anchor="end" class="text-mono-dim">13</text>
  <text x="204" y="316" font-size="10" text-anchor="end" class="text-mono-dim">14</text>
  <text x="204" y="334" font-size="10" text-anchor="end" class="text-mono-dim">15</text>
  <text x="204" y="352" font-size="10" text-anchor="end" class="text-mono-dim">16</text>
  <text x="204" y="370" font-size="10" text-anchor="end" class="text-mono-dim">17</text>
  <text x="204" y="388" font-size="10" text-anchor="end" class="text-mono-dim">18</text>
  <text x="204" y="406" font-size="10" text-anchor="end" class="text-mono-dim">19</text>
  <text x="204" y="424" font-size="10" text-anchor="end" class="text-mono-dim">20</text>
  <text x="204" y="442" font-size="10" text-anchor="end" class="text-mono-dim">21</text>

  <!-- Chat/AI Pane -->
  <rect x="570" y="60" width="330" height="470" class="surface"/>
  <rect x="570" y="60" width="330" height="28" fill="#1c2128"/>
  <rect x="570" y="87" width="330" height="1" class="border"/>
  <text x="585" y="79" font-size="11" font-weight="600" class="text-primary">Agent</text>
  <text x="623" y="79" font-size="10" class="text-secondary">  zoto-spec-executor</text>

  <!-- User message -->
  <rect x="590" y="100" width="290" height="36" rx="8" fill="#1c2128" stroke="#30363d" stroke-width="1"/>
  <text x="602" y="114" font-size="10" class="accent">You</text>
  <text x="602" y="128" font-size="11" class="text-mono">/zoto-spec-execute</text>

  <!-- Phase progress -->
  <rect x="590" y="148" width="290" height="366" rx="8" fill="#161b22" stroke="#30363d" stroke-width="1"/>
  <text x="602" y="164" font-size="10" class="accent">Spec Executor</text>

  <text x="602" y="186" font-size="12" font-weight="600" class="text-primary">Executing: User Authentication</text>

  <!-- Phase indicators -->
  <text x="602" y="210" font-size="11" class="success">  Phase 1</text>
  <text x="672" y="210" font-size="10" class="text-secondary">— completed</text>
  <text x="620" y="226" font-size="10" class="success">✓ 01 DB schema</text>
  <text x="620" y="240" font-size="10" class="success">✓ 02 Auth middleware</text>

  <text x="602" y="262" font-size="11" class="warning">  Phase 2</text>
  <text x="672" y="262" font-size="10" class="text-secondary">— in progress</text>
  <text x="620" y="278" font-size="10" class="warning">  03 Login/signup API</text>

  <text x="602" y="300" font-size="11" class="text-secondary">  Phase 3</text>
  <text x="672" y="300" font-size="10" class="text-secondary">— pending</text>
  <text x="620" y="316" font-size="10" class="text-secondary">  04 RBAC</text>

  <!-- Divider -->
  <rect x="602" y="332" width="260" height="1" fill="#30363d"/>

  <!-- Status table -->
  <text x="602" y="352" font-size="10" font-weight="600" class="text-primary">Subtask Status</text>

  <text x="602" y="370" font-size="10" class="text-mono-dim">ID  Subtask        Status</text>
  <rect x="602" y="374" width="260" height="1" fill="#30363d"/>
  <text x="602" y="388" font-size="10" class="text-mono">01  DB schema</text><text x="770" y="388" font-size="10" class="success">Done</text>
  <text x="602" y="404" font-size="10" class="text-mono">02  Middleware</text><text x="770" y="404" font-size="10" class="success">Done</text>
  <text x="602" y="420" font-size="10" class="text-mono">03  Login API</text><text x="758" y="420" font-size="10" class="warning">Running</text>
  <text x="602" y="436" font-size="10" class="text-mono">04  RBAC</text><text x="758" y="436" font-size="10" class="text-secondary">Pending</text>

  <!-- Progress indicator -->
  <rect x="602" y="452" width="260" height="6" rx="3" fill="#30363d"/>
  <rect x="602" y="452" width="156" height="6" rx="3" fill="#58a6ff"/>
  <text x="602" y="476" font-size="10" class="text-secondary">2 of 4 subtasks complete (50%)</text>

  <!-- Spinner animation -->
  <text x="602" y="500" font-size="11" class="accent">  Running subtask 03...</text>
  <text x="602" y="500" font-size="11" class="accent" opacity="0">
    <animate attributeName="opacity" values="0;1;0" dur="2s" repeatCount="indefinite"/>
  </text>

  <!-- Status Bar -->
  <rect y="530" width="900" height="20" fill="#161b22"/>
  <rect y="530" width="900" height="1" class="border"/>
  <text x="14" y="544" font-size="10" class="accent">  main</text>
  <text x="80" y="544" font-size="10" class="text-secondary">Markdown</text>
  <text x="720" y="544" font-size="10" class="warning">  Executing spec</text>
  <text x="830" y="544" font-size="10" class="text-secondary">UTF-8</text>
</svg>
